<mxfile host="app.diagrams.net" modified="2022-11-13T03:13:05.827Z" agent="5.0 (Windows NT 10.0; Win64; x64) AppleWebKit/537.36 (KHTML, like Gecko) Chrome/106.0.0.0 Safari/537.36" etag="MV1BpJ4h6VWVKRNUPaes" version="20.3.7" type="github">
  <diagram id="C5RBs43oDa-KdzZeNtuy" name="Page-1">
    <mxGraphModel dx="2905" dy="959" grid="1" gridSize="10" guides="1" tooltips="1" connect="1" arrows="1" fold="1" page="1" pageScale="1" pageWidth="827" pageHeight="1169" math="0" shadow="0">
      <root>
        <mxCell id="WIyWlLk6GJQsqaUBKTNV-0" />
        <mxCell id="WIyWlLk6GJQsqaUBKTNV-1" parent="WIyWlLk6GJQsqaUBKTNV-0" />
        <mxCell id="jRd905gV_513u5tSEe47-0" value="Product" style="shape=table;startSize=30;container=1;collapsible=1;childLayout=tableLayout;fixedRows=1;rowLines=0;fontStyle=1;align=center;resizeLast=1;" vertex="1" parent="WIyWlLk6GJQsqaUBKTNV-1">
          <mxGeometry x="369" y="650.25" width="170" height="139" as="geometry" />
        </mxCell>
        <mxCell id="jRd905gV_513u5tSEe47-1" value="" style="shape=partialRectangle;collapsible=0;dropTarget=0;pointerEvents=0;fillColor=none;points=[[0,0.5],[1,0.5]];portConstraint=eastwest;top=0;left=0;right=0;bottom=1;" vertex="1" parent="jRd905gV_513u5tSEe47-0">
          <mxGeometry y="30" width="170" height="30" as="geometry" />
        </mxCell>
        <mxCell id="jRd905gV_513u5tSEe47-2" value="PK" style="shape=partialRectangle;overflow=hidden;connectable=0;fillColor=none;top=0;left=0;bottom=0;right=0;fontStyle=1;" vertex="1" parent="jRd905gV_513u5tSEe47-1">
          <mxGeometry width="30" height="30" as="geometry">
            <mxRectangle width="30" height="30" as="alternateBounds" />
          </mxGeometry>
        </mxCell>
        <mxCell id="jRd905gV_513u5tSEe47-3" value="pid" style="shape=partialRectangle;overflow=hidden;connectable=0;fillColor=none;top=0;left=0;bottom=0;right=0;align=left;spacingLeft=6;fontStyle=5;" vertex="1" parent="jRd905gV_513u5tSEe47-1">
          <mxGeometry x="30" width="140" height="30" as="geometry">
            <mxRectangle width="140" height="30" as="alternateBounds" />
          </mxGeometry>
        </mxCell>
        <mxCell id="jRd905gV_513u5tSEe47-4" value="" style="shape=partialRectangle;collapsible=0;dropTarget=0;pointerEvents=0;fillColor=none;points=[[0,0.5],[1,0.5]];portConstraint=eastwest;top=0;left=0;right=0;bottom=0;" vertex="1" parent="jRd905gV_513u5tSEe47-0">
          <mxGeometry y="60" width="170" height="79" as="geometry" />
        </mxCell>
        <mxCell id="jRd905gV_513u5tSEe47-5" value="" style="shape=partialRectangle;overflow=hidden;connectable=0;fillColor=none;top=0;left=0;bottom=0;right=0;" vertex="1" parent="jRd905gV_513u5tSEe47-4">
          <mxGeometry width="30" height="79" as="geometry">
            <mxRectangle width="30" height="79" as="alternateBounds" />
          </mxGeometry>
        </mxCell>
        <mxCell id="jRd905gV_513u5tSEe47-6" value="pdate&#xa;ptime&#xa;producer&#xa;tester&#xa;repairer" style="shape=partialRectangle;overflow=hidden;connectable=0;fillColor=none;top=0;left=0;bottom=0;right=0;align=left;spacingLeft=6;" vertex="1" parent="jRd905gV_513u5tSEe47-4">
          <mxGeometry x="30" width="140" height="79" as="geometry">
            <mxRectangle width="140" height="79" as="alternateBounds" />
          </mxGeometry>
        </mxCell>
        <mxCell id="jRd905gV_513u5tSEe47-7" value="Customer" style="shape=table;startSize=30;container=1;collapsible=1;childLayout=tableLayout;fixedRows=1;rowLines=0;fontStyle=1;align=center;resizeLast=1;" vertex="1" parent="WIyWlLk6GJQsqaUBKTNV-1">
          <mxGeometry x="955" y="625.75" width="186" height="115" as="geometry" />
        </mxCell>
        <mxCell id="jRd905gV_513u5tSEe47-8" value="" style="shape=partialRectangle;collapsible=0;dropTarget=0;pointerEvents=0;fillColor=none;points=[[0,0.5],[1,0.5]];portConstraint=eastwest;top=0;left=0;right=0;bottom=1;" vertex="1" parent="jRd905gV_513u5tSEe47-7">
          <mxGeometry y="30" width="186" height="30" as="geometry" />
        </mxCell>
        <mxCell id="jRd905gV_513u5tSEe47-9" value="PK" style="shape=partialRectangle;overflow=hidden;connectable=0;fillColor=none;top=0;left=0;bottom=0;right=0;fontStyle=1;" vertex="1" parent="jRd905gV_513u5tSEe47-8">
          <mxGeometry width="30" height="30" as="geometry">
            <mxRectangle width="30" height="30" as="alternateBounds" />
          </mxGeometry>
        </mxCell>
        <mxCell id="jRd905gV_513u5tSEe47-10" value="cname" style="shape=partialRectangle;overflow=hidden;connectable=0;fillColor=none;top=0;left=0;bottom=0;right=0;align=left;spacingLeft=6;fontStyle=5;" vertex="1" parent="jRd905gV_513u5tSEe47-8">
          <mxGeometry x="30" width="156" height="30" as="geometry">
            <mxRectangle width="156" height="30" as="alternateBounds" />
          </mxGeometry>
        </mxCell>
        <mxCell id="jRd905gV_513u5tSEe47-11" value="" style="shape=partialRectangle;collapsible=0;dropTarget=0;pointerEvents=0;fillColor=none;points=[[0,0.5],[1,0.5]];portConstraint=eastwest;top=0;left=0;right=0;bottom=0;" vertex="1" parent="jRd905gV_513u5tSEe47-7">
          <mxGeometry y="60" width="186" height="55" as="geometry" />
        </mxCell>
        <mxCell id="jRd905gV_513u5tSEe47-12" value="" style="shape=partialRectangle;overflow=hidden;connectable=0;fillColor=none;top=0;left=0;bottom=0;right=0;" vertex="1" parent="jRd905gV_513u5tSEe47-11">
          <mxGeometry width="30" height="55" as="geometry">
            <mxRectangle width="30" height="55" as="alternateBounds" />
          </mxGeometry>
        </mxCell>
        <mxCell id="jRd905gV_513u5tSEe47-13" value="address" style="shape=partialRectangle;overflow=hidden;connectable=0;fillColor=none;top=0;left=0;bottom=0;right=0;align=left;spacingLeft=6;" vertex="1" parent="jRd905gV_513u5tSEe47-11">
          <mxGeometry x="30" width="156" height="55" as="geometry">
            <mxRectangle width="156" height="55" as="alternateBounds" />
          </mxGeometry>
        </mxCell>
        <mxCell id="jRd905gV_513u5tSEe47-14" value="Employee" style="shape=table;startSize=40;container=1;collapsible=1;childLayout=tableLayout;fixedRows=1;rowLines=0;fontStyle=1;align=center;resizeLast=1;" vertex="1" parent="WIyWlLk6GJQsqaUBKTNV-1">
          <mxGeometry x="109" y="200.25" width="250" height="150" as="geometry" />
        </mxCell>
        <mxCell id="jRd905gV_513u5tSEe47-15" value="" style="shape=partialRectangle;collapsible=0;dropTarget=0;pointerEvents=0;fillColor=none;points=[[0,0.5],[1,0.5]];portConstraint=eastwest;top=0;left=0;right=0;bottom=1;" vertex="1" parent="jRd905gV_513u5tSEe47-14">
          <mxGeometry y="40" width="250" height="40" as="geometry" />
        </mxCell>
        <mxCell id="jRd905gV_513u5tSEe47-16" value="PK" style="shape=partialRectangle;overflow=hidden;connectable=0;fillColor=none;top=0;left=0;bottom=0;right=0;fontStyle=1;" vertex="1" parent="jRd905gV_513u5tSEe47-15">
          <mxGeometry width="30" height="40" as="geometry">
            <mxRectangle width="30" height="40" as="alternateBounds" />
          </mxGeometry>
        </mxCell>
        <mxCell id="jRd905gV_513u5tSEe47-17" value="ename" style="shape=partialRectangle;overflow=hidden;connectable=0;fillColor=none;top=0;left=0;bottom=0;right=0;align=left;spacingLeft=6;fontStyle=5;" vertex="1" parent="jRd905gV_513u5tSEe47-15">
          <mxGeometry x="30" width="220" height="40" as="geometry">
            <mxRectangle width="220" height="40" as="alternateBounds" />
          </mxGeometry>
        </mxCell>
        <mxCell id="jRd905gV_513u5tSEe47-18" value="" style="shape=partialRectangle;collapsible=0;dropTarget=0;pointerEvents=0;fillColor=none;points=[[0,0.5],[1,0.5]];portConstraint=eastwest;top=0;left=0;right=0;bottom=0;" vertex="1" parent="jRd905gV_513u5tSEe47-14">
          <mxGeometry y="80" width="250" height="70" as="geometry" />
        </mxCell>
        <mxCell id="jRd905gV_513u5tSEe47-19" value="" style="shape=partialRectangle;overflow=hidden;connectable=0;fillColor=none;top=0;left=0;bottom=0;right=0;" vertex="1" parent="jRd905gV_513u5tSEe47-18">
          <mxGeometry width="30" height="70" as="geometry">
            <mxRectangle width="30" height="70" as="alternateBounds" />
          </mxGeometry>
        </mxCell>
        <mxCell id="jRd905gV_513u5tSEe47-20" value="address&#xa;salary" style="shape=partialRectangle;overflow=hidden;connectable=0;fillColor=none;top=0;left=0;bottom=0;right=0;align=left;spacingLeft=6;" vertex="1" parent="jRd905gV_513u5tSEe47-18">
          <mxGeometry x="30" width="220" height="70" as="geometry">
            <mxRectangle width="220" height="70" as="alternateBounds" />
          </mxGeometry>
        </mxCell>
        <mxCell id="jRd905gV_513u5tSEe47-21" value="Worker" style="swimlane;fontStyle=0;childLayout=stackLayout;horizontal=1;startSize=30;horizontalStack=0;resizeParent=1;resizeParentMax=0;resizeLast=0;collapsible=1;marginBottom=0;" vertex="1" parent="WIyWlLk6GJQsqaUBKTNV-1">
          <mxGeometry x="-147" y="428.25" width="140" height="60" as="geometry" />
        </mxCell>
        <mxCell id="jRd905gV_513u5tSEe47-22" value="max_products_per_day" style="text;strokeColor=none;fillColor=none;align=left;verticalAlign=middle;spacingLeft=4;spacingRight=4;overflow=hidden;points=[[0,0.5],[1,0.5]];portConstraint=eastwest;rotatable=0;" vertex="1" parent="jRd905gV_513u5tSEe47-21">
          <mxGeometry y="30" width="140" height="30" as="geometry" />
        </mxCell>
        <mxCell id="jRd905gV_513u5tSEe47-26" value="Quality Controller" style="swimlane;fontStyle=0;childLayout=stackLayout;horizontal=1;startSize=30;horizontalStack=0;resizeParent=1;resizeParentMax=0;resizeLast=0;collapsible=1;marginBottom=0;" vertex="1" parent="WIyWlLk6GJQsqaUBKTNV-1">
          <mxGeometry x="482.81" y="425.25" width="140" height="60" as="geometry" />
        </mxCell>
        <mxCell id="jRd905gV_513u5tSEe47-27" value="type" style="text;strokeColor=none;fillColor=none;align=left;verticalAlign=middle;spacingLeft=4;spacingRight=4;overflow=hidden;points=[[0,0.5],[1,0.5]];portConstraint=eastwest;rotatable=0;" vertex="1" parent="jRd905gV_513u5tSEe47-26">
          <mxGeometry y="30" width="140" height="30" as="geometry" />
        </mxCell>
        <mxCell id="jRd905gV_513u5tSEe47-29" value="Technical Staff" style="swimlane;fontStyle=0;childLayout=stackLayout;horizontal=1;startSize=30;horizontalStack=0;resizeParent=1;resizeParentMax=0;resizeLast=0;collapsible=1;marginBottom=0;" vertex="1" parent="WIyWlLk6GJQsqaUBKTNV-1">
          <mxGeometry x="169" y="427.25" width="140" height="80" as="geometry" />
        </mxCell>
        <mxCell id="jRd905gV_513u5tSEe47-30" value="education_record&#xa;    &#xa;technical_positioion" style="text;strokeColor=none;fillColor=none;align=left;verticalAlign=middle;spacingLeft=4;spacingRight=4;overflow=hidden;points=[[0,0.5],[1,0.5]];portConstraint=eastwest;rotatable=0;" vertex="1" parent="jRd905gV_513u5tSEe47-29">
          <mxGeometry y="30" width="140" height="50" as="geometry" />
        </mxCell>
        <mxCell id="jRd905gV_513u5tSEe47-31" value="" style="triangle;whiteSpace=wrap;html=1;rotation=-90;" vertex="1" parent="WIyWlLk6GJQsqaUBKTNV-1">
          <mxGeometry x="217" y="356.25" width="28" height="18" as="geometry" />
        </mxCell>
        <mxCell id="jRd905gV_513u5tSEe47-32" value="" style="strokeWidth=2;html=1;shape=mxgraph.flowchart.annotation_2;align=left;labelPosition=right;pointerEvents=1;rotation=90;" vertex="1" parent="WIyWlLk6GJQsqaUBKTNV-1">
          <mxGeometry x="210" y="88" width="45.5" height="632.5" as="geometry" />
        </mxCell>
        <mxCell id="jRd905gV_513u5tSEe47-48" value="produces" style="shape=rhombus;perimeter=rhombusPerimeter;whiteSpace=wrap;html=1;align=center;" vertex="1" parent="WIyWlLk6GJQsqaUBKTNV-1">
          <mxGeometry x="-141" y="533.25" width="120" height="60" as="geometry" />
        </mxCell>
        <mxCell id="jRd905gV_513u5tSEe47-49" value="" style="endArrow=none;html=1;rounded=0;entryX=-0.011;entryY=0.29;entryDx=0;entryDy=0;entryPerimeter=0;exitX=0.5;exitY=1;exitDx=0;exitDy=0;" edge="1" parent="WIyWlLk6GJQsqaUBKTNV-1" source="jRd905gV_513u5tSEe47-48" target="jRd905gV_513u5tSEe47-1">
          <mxGeometry relative="1" as="geometry">
            <mxPoint x="-60" y="590" as="sourcePoint" />
            <mxPoint x="350" y="670" as="targetPoint" />
          </mxGeometry>
        </mxCell>
        <mxCell id="jRd905gV_513u5tSEe47-50" value="checks" style="rhombus;whiteSpace=wrap;html=1;" vertex="1" parent="WIyWlLk6GJQsqaUBKTNV-1">
          <mxGeometry x="482.56" y="520" width="130" height="72.5" as="geometry" />
        </mxCell>
        <mxCell id="jRd905gV_513u5tSEe47-52" value="repairs" style="rhombus;whiteSpace=wrap;html=1;" vertex="1" parent="WIyWlLk6GJQsqaUBKTNV-1">
          <mxGeometry x="180.5" y="564.75" width="117" height="66.5" as="geometry" />
        </mxCell>
        <mxCell id="jRd905gV_513u5tSEe47-53" value="" style="endArrow=none;html=1;rounded=0;entryX=0.396;entryY=0.5;entryDx=0;entryDy=0;entryPerimeter=0;exitX=0.457;exitY=0.005;exitDx=0;exitDy=0;exitPerimeter=0;" edge="1" parent="WIyWlLk6GJQsqaUBKTNV-1" source="jRd905gV_513u5tSEe47-29" target="jRd905gV_513u5tSEe47-32">
          <mxGeometry width="50" height="50" relative="1" as="geometry">
            <mxPoint x="232" y="427.2500000000002" as="sourcePoint" />
            <mxPoint x="232" y="407.2500000000002" as="targetPoint" />
            <Array as="points" />
          </mxGeometry>
        </mxCell>
        <mxCell id="jRd905gV_513u5tSEe47-55" value="" style="endArrow=none;html=1;rounded=0;exitX=0.5;exitY=1;exitDx=0;exitDy=0;entryX=-0.017;entryY=0.12;entryDx=0;entryDy=0;entryPerimeter=0;" edge="1" parent="WIyWlLk6GJQsqaUBKTNV-1" source="jRd905gV_513u5tSEe47-52" target="jRd905gV_513u5tSEe47-0">
          <mxGeometry relative="1" as="geometry">
            <mxPoint x="478" y="586" as="sourcePoint" />
            <mxPoint x="686" y="652" as="targetPoint" />
          </mxGeometry>
        </mxCell>
        <mxCell id="jRd905gV_513u5tSEe47-83" value="Product3" style="swimlane;fontStyle=0;childLayout=stackLayout;horizontal=1;startSize=30;horizontalStack=0;resizeParent=1;resizeParentMax=0;resizeLast=0;collapsible=1;marginBottom=0;" vertex="1" parent="WIyWlLk6GJQsqaUBKTNV-1">
          <mxGeometry x="673" y="868" width="140" height="70" as="geometry" />
        </mxCell>
        <mxCell id="jRd905gV_513u5tSEe47-84" value="p3size&#xa;weight" style="text;strokeColor=none;fillColor=none;align=left;verticalAlign=middle;spacingLeft=4;spacingRight=4;overflow=hidden;points=[[0,0.5],[1,0.5]];portConstraint=eastwest;rotatable=0;" vertex="1" parent="jRd905gV_513u5tSEe47-83">
          <mxGeometry y="30" width="140" height="40" as="geometry" />
        </mxCell>
        <mxCell id="jRd905gV_513u5tSEe47-85" value="Product2 " style="swimlane;fontStyle=0;childLayout=stackLayout;horizontal=1;startSize=30;horizontalStack=0;resizeParent=1;resizeParentMax=0;resizeLast=0;collapsible=1;marginBottom=0;" vertex="1" parent="WIyWlLk6GJQsqaUBKTNV-1">
          <mxGeometry x="383" y="868" width="140" height="70" as="geometry" />
        </mxCell>
        <mxCell id="jRd905gV_513u5tSEe47-86" value="p2size&#xa;color" style="text;strokeColor=none;fillColor=none;align=left;verticalAlign=middle;spacingLeft=4;spacingRight=4;overflow=hidden;points=[[0,0.5],[1,0.5]];portConstraint=eastwest;rotatable=0;" vertex="1" parent="jRd905gV_513u5tSEe47-85">
          <mxGeometry y="30" width="140" height="40" as="geometry" />
        </mxCell>
        <mxCell id="jRd905gV_513u5tSEe47-92" value="" style="endArrow=none;html=1;rounded=0;" edge="1" parent="jRd905gV_513u5tSEe47-85">
          <mxGeometry width="50" height="50" relative="1" as="geometry">
            <mxPoint x="64.55000000000047" y="-0.7499999999997726" as="sourcePoint" />
            <mxPoint x="64.55000000000047" y="-20.749999999999773" as="targetPoint" />
            <Array as="points" />
          </mxGeometry>
        </mxCell>
        <mxCell id="jRd905gV_513u5tSEe47-87" value="Product1" style="swimlane;fontStyle=0;childLayout=stackLayout;horizontal=1;startSize=30;horizontalStack=0;resizeParent=1;resizeParentMax=0;resizeLast=0;collapsible=1;marginBottom=0;" vertex="1" parent="WIyWlLk6GJQsqaUBKTNV-1">
          <mxGeometry x="100" y="870.25" width="140" height="70" as="geometry" />
        </mxCell>
        <mxCell id="jRd905gV_513u5tSEe47-88" value="p1size &#xa;sname" style="text;strokeColor=none;fillColor=none;align=left;verticalAlign=middle;spacingLeft=4;spacingRight=4;overflow=hidden;points=[[0,0.5],[1,0.5]];portConstraint=eastwest;rotatable=0;" vertex="1" parent="jRd905gV_513u5tSEe47-87">
          <mxGeometry y="30" width="140" height="40" as="geometry" />
        </mxCell>
        <mxCell id="jRd905gV_513u5tSEe47-89" value="" style="strokeWidth=2;html=1;shape=mxgraph.flowchart.annotation_2;align=left;labelPosition=right;pointerEvents=1;rotation=90;" vertex="1" parent="WIyWlLk6GJQsqaUBKTNV-1">
          <mxGeometry x="426.2" y="562.07" width="45.5" height="568.38" as="geometry" />
        </mxCell>
        <mxCell id="jRd905gV_513u5tSEe47-90" value="" style="triangle;whiteSpace=wrap;html=1;rotation=-90;" vertex="1" parent="WIyWlLk6GJQsqaUBKTNV-1">
          <mxGeometry x="434" y="799" width="28" height="18" as="geometry" />
        </mxCell>
        <mxCell id="jRd905gV_513u5tSEe47-93" value="Account" style="shape=table;startSize=30;container=1;collapsible=1;childLayout=tableLayout;fixedRows=1;rowLines=0;fontStyle=1;align=center;resizeLast=1;" vertex="1" parent="WIyWlLk6GJQsqaUBKTNV-1">
          <mxGeometry x="-340" y="662.5" width="170" height="98" as="geometry" />
        </mxCell>
        <mxCell id="jRd905gV_513u5tSEe47-94" value="" style="shape=partialRectangle;collapsible=0;dropTarget=0;pointerEvents=0;fillColor=none;points=[[0,0.5],[1,0.5]];portConstraint=eastwest;top=0;left=0;right=0;bottom=1;" vertex="1" parent="jRd905gV_513u5tSEe47-93">
          <mxGeometry y="30" width="170" height="30" as="geometry" />
        </mxCell>
        <mxCell id="jRd905gV_513u5tSEe47-95" value="PK" style="shape=partialRectangle;overflow=hidden;connectable=0;fillColor=none;top=0;left=0;bottom=0;right=0;fontStyle=1;" vertex="1" parent="jRd905gV_513u5tSEe47-94">
          <mxGeometry width="30" height="30" as="geometry">
            <mxRectangle width="30" height="30" as="alternateBounds" />
          </mxGeometry>
        </mxCell>
        <mxCell id="jRd905gV_513u5tSEe47-96" value="account_number" style="shape=partialRectangle;overflow=hidden;connectable=0;fillColor=none;top=0;left=0;bottom=0;right=0;align=left;spacingLeft=6;fontStyle=5;" vertex="1" parent="jRd905gV_513u5tSEe47-94">
          <mxGeometry x="30" width="140" height="30" as="geometry">
            <mxRectangle width="140" height="30" as="alternateBounds" />
          </mxGeometry>
        </mxCell>
        <mxCell id="jRd905gV_513u5tSEe47-97" value="" style="shape=partialRectangle;collapsible=0;dropTarget=0;pointerEvents=0;fillColor=none;points=[[0,0.5],[1,0.5]];portConstraint=eastwest;top=0;left=0;right=0;bottom=0;" vertex="1" parent="jRd905gV_513u5tSEe47-93">
          <mxGeometry y="60" width="170" height="38" as="geometry" />
        </mxCell>
        <mxCell id="jRd905gV_513u5tSEe47-98" value="" style="shape=partialRectangle;overflow=hidden;connectable=0;fillColor=none;top=0;left=0;bottom=0;right=0;" vertex="1" parent="jRd905gV_513u5tSEe47-97">
          <mxGeometry width="30" height="38" as="geometry">
            <mxRectangle width="30" height="38" as="alternateBounds" />
          </mxGeometry>
        </mxCell>
        <mxCell id="jRd905gV_513u5tSEe47-99" value="date_established" style="shape=partialRectangle;overflow=hidden;connectable=0;fillColor=none;top=0;left=0;bottom=0;right=0;align=left;spacingLeft=6;" vertex="1" parent="jRd905gV_513u5tSEe47-97">
          <mxGeometry x="30" width="140" height="38" as="geometry">
            <mxRectangle width="140" height="38" as="alternateBounds" />
          </mxGeometry>
        </mxCell>
        <mxCell id="jRd905gV_513u5tSEe47-100" value="Product3-account" style="swimlane;fontStyle=0;childLayout=stackLayout;horizontal=1;startSize=30;horizontalStack=0;resizeParent=1;resizeParentMax=0;resizeLast=0;collapsible=1;marginBottom=0;" vertex="1" parent="WIyWlLk6GJQsqaUBKTNV-1">
          <mxGeometry x="-116" y="830" width="140" height="70" as="geometry" />
        </mxCell>
        <mxCell id="jRd905gV_513u5tSEe47-101" value="p3cost" style="text;strokeColor=none;fillColor=none;align=left;verticalAlign=middle;spacingLeft=4;spacingRight=4;overflow=hidden;points=[[0,0.5],[1,0.5]];portConstraint=eastwest;rotatable=0;" vertex="1" parent="jRd905gV_513u5tSEe47-100">
          <mxGeometry y="30" width="140" height="40" as="geometry" />
        </mxCell>
        <mxCell id="jRd905gV_513u5tSEe47-102" value="Product2-account" style="swimlane;fontStyle=0;childLayout=stackLayout;horizontal=1;startSize=30;horizontalStack=0;resizeParent=1;resizeParentMax=0;resizeLast=0;collapsible=1;marginBottom=0;" vertex="1" parent="WIyWlLk6GJQsqaUBKTNV-1">
          <mxGeometry x="-324" y="830" width="140" height="70" as="geometry" />
        </mxCell>
        <mxCell id="jRd905gV_513u5tSEe47-103" value="p2cost" style="text;strokeColor=none;fillColor=none;align=left;verticalAlign=middle;spacingLeft=4;spacingRight=4;overflow=hidden;points=[[0,0.5],[1,0.5]];portConstraint=eastwest;rotatable=0;" vertex="1" parent="jRd905gV_513u5tSEe47-102">
          <mxGeometry y="30" width="140" height="40" as="geometry" />
        </mxCell>
        <mxCell id="jRd905gV_513u5tSEe47-104" value="Product1-account" style="swimlane;fontStyle=0;childLayout=stackLayout;horizontal=1;startSize=30;horizontalStack=0;resizeParent=1;resizeParentMax=0;resizeLast=0;collapsible=1;marginBottom=0;" vertex="1" parent="WIyWlLk6GJQsqaUBKTNV-1">
          <mxGeometry x="-533" y="830" width="140" height="70" as="geometry" />
        </mxCell>
        <mxCell id="jRd905gV_513u5tSEe47-105" value="p1cost" style="text;strokeColor=none;fillColor=none;align=left;verticalAlign=middle;spacingLeft=4;spacingRight=4;overflow=hidden;points=[[0,0.5],[1,0.5]];portConstraint=eastwest;rotatable=0;" vertex="1" parent="jRd905gV_513u5tSEe47-104">
          <mxGeometry y="30" width="140" height="40" as="geometry" />
        </mxCell>
        <mxCell id="jRd905gV_513u5tSEe47-106" value="" style="strokeWidth=2;html=1;shape=mxgraph.flowchart.annotation_2;align=left;labelPosition=right;pointerEvents=1;rotation=90;" vertex="1" parent="WIyWlLk6GJQsqaUBKTNV-1">
          <mxGeometry x="-281.86" y="601.76" width="45.5" height="411.48" as="geometry" />
        </mxCell>
        <mxCell id="jRd905gV_513u5tSEe47-107" value="" style="triangle;whiteSpace=wrap;html=1;rotation=-90;" vertex="1" parent="WIyWlLk6GJQsqaUBKTNV-1">
          <mxGeometry x="-274" y="765" width="28" height="18" as="geometry" />
        </mxCell>
        <mxCell id="jRd905gV_513u5tSEe47-108" value="" style="endArrow=none;html=1;rounded=0;" edge="1" parent="WIyWlLk6GJQsqaUBKTNV-1">
          <mxGeometry width="50" height="50" relative="1" as="geometry">
            <mxPoint x="-259.87999999999965" y="828.2500000000002" as="sourcePoint" />
            <mxPoint x="-259.87999999999965" y="808.2500000000002" as="targetPoint" />
            <Array as="points" />
          </mxGeometry>
        </mxCell>
        <mxCell id="jRd905gV_513u5tSEe47-123" value="maintains" style="rhombus;whiteSpace=wrap;html=1;" vertex="1" parent="WIyWlLk6GJQsqaUBKTNV-1">
          <mxGeometry x="-30" y="696.75" width="130" height="72.5" as="geometry" />
        </mxCell>
        <mxCell id="jRd905gV_513u5tSEe47-124" value="" style="endArrow=none;html=1;rounded=0;entryX=0;entryY=0.5;entryDx=0;entryDy=0;" edge="1" parent="WIyWlLk6GJQsqaUBKTNV-1" target="jRd905gV_513u5tSEe47-123">
          <mxGeometry relative="1" as="geometry">
            <mxPoint x="-170" y="732.5699999999999" as="sourcePoint" />
            <mxPoint x="-130" y="732.5699999999999" as="targetPoint" />
          </mxGeometry>
        </mxCell>
        <mxCell id="jRd905gV_513u5tSEe47-126" value="" style="endArrow=none;html=1;rounded=0;exitX=1;exitY=0.5;exitDx=0;exitDy=0;" edge="1" parent="WIyWlLk6GJQsqaUBKTNV-1" source="jRd905gV_513u5tSEe47-123">
          <mxGeometry relative="1" as="geometry">
            <mxPoint x="108" y="732.5699999999999" as="sourcePoint" />
            <mxPoint x="370" y="733" as="targetPoint" />
          </mxGeometry>
        </mxCell>
        <mxCell id="jRd905gV_513u5tSEe47-128" value="purchases" style="rhombus;whiteSpace=wrap;html=1;" vertex="1" parent="WIyWlLk6GJQsqaUBKTNV-1">
          <mxGeometry x="701" y="654.5" width="130" height="72.5" as="geometry" />
        </mxCell>
        <mxCell id="jRd905gV_513u5tSEe47-129" value="" style="endArrow=none;html=1;rounded=0;entryX=0;entryY=0.5;entryDx=0;entryDy=0;" edge="1" parent="WIyWlLk6GJQsqaUBKTNV-1" target="jRd905gV_513u5tSEe47-128">
          <mxGeometry relative="1" as="geometry">
            <mxPoint x="542" y="690.5" as="sourcePoint" />
            <mxPoint x="403" y="690.3199999999999" as="targetPoint" />
          </mxGeometry>
        </mxCell>
        <mxCell id="jRd905gV_513u5tSEe47-137" value="Complaint" style="shape=table;startSize=30;container=1;collapsible=1;childLayout=tableLayout;fixedRows=1;rowLines=0;fontStyle=1;align=center;resizeLast=1;" vertex="1" parent="WIyWlLk6GJQsqaUBKTNV-1">
          <mxGeometry x="956.5" y="859" width="186" height="115" as="geometry" />
        </mxCell>
        <mxCell id="jRd905gV_513u5tSEe47-138" value="" style="shape=partialRectangle;collapsible=0;dropTarget=0;pointerEvents=0;fillColor=none;points=[[0,0.5],[1,0.5]];portConstraint=eastwest;top=0;left=0;right=0;bottom=1;" vertex="1" parent="jRd905gV_513u5tSEe47-137">
          <mxGeometry y="30" width="186" height="30" as="geometry" />
        </mxCell>
        <mxCell id="jRd905gV_513u5tSEe47-139" value="PK" style="shape=partialRectangle;overflow=hidden;connectable=0;fillColor=none;top=0;left=0;bottom=0;right=0;fontStyle=1;" vertex="1" parent="jRd905gV_513u5tSEe47-138">
          <mxGeometry width="30" height="30" as="geometry">
            <mxRectangle width="30" height="30" as="alternateBounds" />
          </mxGeometry>
        </mxCell>
        <mxCell id="jRd905gV_513u5tSEe47-140" value="cid" style="shape=partialRectangle;overflow=hidden;connectable=0;fillColor=none;top=0;left=0;bottom=0;right=0;align=left;spacingLeft=6;fontStyle=5;" vertex="1" parent="jRd905gV_513u5tSEe47-138">
          <mxGeometry x="30" width="156" height="30" as="geometry">
            <mxRectangle width="156" height="30" as="alternateBounds" />
          </mxGeometry>
        </mxCell>
        <mxCell id="jRd905gV_513u5tSEe47-141" value="" style="shape=partialRectangle;collapsible=0;dropTarget=0;pointerEvents=0;fillColor=none;points=[[0,0.5],[1,0.5]];portConstraint=eastwest;top=0;left=0;right=0;bottom=0;" vertex="1" parent="jRd905gV_513u5tSEe47-137">
          <mxGeometry y="60" width="186" height="55" as="geometry" />
        </mxCell>
        <mxCell id="jRd905gV_513u5tSEe47-142" value="" style="shape=partialRectangle;overflow=hidden;connectable=0;fillColor=none;top=0;left=0;bottom=0;right=0;" vertex="1" parent="jRd905gV_513u5tSEe47-141">
          <mxGeometry width="30" height="55" as="geometry">
            <mxRectangle width="30" height="55" as="alternateBounds" />
          </mxGeometry>
        </mxCell>
        <mxCell id="jRd905gV_513u5tSEe47-143" value="cdate&#xa;cdescriptiion&#xa;ctreatment" style="shape=partialRectangle;overflow=hidden;connectable=0;fillColor=none;top=0;left=0;bottom=0;right=0;align=left;spacingLeft=6;" vertex="1" parent="jRd905gV_513u5tSEe47-141">
          <mxGeometry x="30" width="156" height="55" as="geometry">
            <mxRectangle width="156" height="55" as="alternateBounds" />
          </mxGeometry>
        </mxCell>
        <mxCell id="jRd905gV_513u5tSEe47-144" value="" style="endArrow=none;dashed=1;html=1;dashPattern=1 3;strokeWidth=2;rounded=0;exitX=0.214;exitY=0.5;exitDx=0;exitDy=0;exitPerimeter=0;entryX=0.013;entryY=0.575;entryDx=0;entryDy=0;entryPerimeter=0;" edge="1" parent="WIyWlLk6GJQsqaUBKTNV-1" source="jRd905gV_513u5tSEe47-32" target="jRd905gV_513u5tSEe47-145">
          <mxGeometry width="50" height="50" relative="1" as="geometry">
            <mxPoint x="470" y="450" as="sourcePoint" />
            <mxPoint x="300" y="393" as="targetPoint" />
          </mxGeometry>
        </mxCell>
        <mxCell id="jRd905gV_513u5tSEe47-145" value="total" style="text;html=1;strokeColor=none;fillColor=none;align=center;verticalAlign=middle;whiteSpace=wrap;rounded=0;" vertex="1" parent="WIyWlLk6GJQsqaUBKTNV-1">
          <mxGeometry x="273" y="374.25" width="60" height="30" as="geometry" />
        </mxCell>
        <mxCell id="jRd905gV_513u5tSEe47-146" value="" style="endArrow=none;dashed=1;html=1;dashPattern=1 3;strokeWidth=2;rounded=0;exitX=0.214;exitY=0.5;exitDx=0;exitDy=0;exitPerimeter=0;" edge="1" parent="WIyWlLk6GJQsqaUBKTNV-1">
          <mxGeometry width="50" height="50" relative="1" as="geometry">
            <mxPoint x="448" y="833.2370000000001" as="sourcePoint" />
            <mxPoint x="515.25" y="833" as="targetPoint" />
          </mxGeometry>
        </mxCell>
        <mxCell id="jRd905gV_513u5tSEe47-147" value="total" style="text;html=1;strokeColor=none;fillColor=none;align=center;verticalAlign=middle;whiteSpace=wrap;rounded=0;" vertex="1" parent="WIyWlLk6GJQsqaUBKTNV-1">
          <mxGeometry x="500.25" y="817.25" width="60" height="30" as="geometry" />
        </mxCell>
        <mxCell id="jRd905gV_513u5tSEe47-148" value="" style="endArrow=none;dashed=1;html=1;dashPattern=1 3;strokeWidth=2;rounded=0;exitX=0.214;exitY=0.5;exitDx=0;exitDy=0;exitPerimeter=0;" edge="1" parent="WIyWlLk6GJQsqaUBKTNV-1">
          <mxGeometry width="50" height="50" relative="1" as="geometry">
            <mxPoint x="-259.25" y="798.9870000000001" as="sourcePoint" />
            <mxPoint x="-192" y="798.75" as="targetPoint" />
          </mxGeometry>
        </mxCell>
        <mxCell id="jRd905gV_513u5tSEe47-149" value="total" style="text;html=1;strokeColor=none;fillColor=none;align=center;verticalAlign=middle;whiteSpace=wrap;rounded=0;" vertex="1" parent="WIyWlLk6GJQsqaUBKTNV-1">
          <mxGeometry x="-207" y="783" width="60" height="30" as="geometry" />
        </mxCell>
        <mxCell id="jRd905gV_513u5tSEe47-152" value="Accident" style="shape=table;startSize=30;container=1;collapsible=1;childLayout=tableLayout;fixedRows=1;rowLines=0;fontStyle=1;align=center;resizeLast=1;" vertex="1" parent="WIyWlLk6GJQsqaUBKTNV-1">
          <mxGeometry x="-560" y="449.75" width="186" height="115" as="geometry" />
        </mxCell>
        <mxCell id="jRd905gV_513u5tSEe47-153" value="" style="shape=partialRectangle;collapsible=0;dropTarget=0;pointerEvents=0;fillColor=none;points=[[0,0.5],[1,0.5]];portConstraint=eastwest;top=0;left=0;right=0;bottom=1;" vertex="1" parent="jRd905gV_513u5tSEe47-152">
          <mxGeometry y="30" width="186" height="30" as="geometry" />
        </mxCell>
        <mxCell id="jRd905gV_513u5tSEe47-154" value="PK" style="shape=partialRectangle;overflow=hidden;connectable=0;fillColor=none;top=0;left=0;bottom=0;right=0;fontStyle=1;" vertex="1" parent="jRd905gV_513u5tSEe47-153">
          <mxGeometry width="30" height="30" as="geometry">
            <mxRectangle width="30" height="30" as="alternateBounds" />
          </mxGeometry>
        </mxCell>
        <mxCell id="jRd905gV_513u5tSEe47-155" value="accident_number" style="shape=partialRectangle;overflow=hidden;connectable=0;fillColor=none;top=0;left=0;bottom=0;right=0;align=left;spacingLeft=6;fontStyle=5;" vertex="1" parent="jRd905gV_513u5tSEe47-153">
          <mxGeometry x="30" width="156" height="30" as="geometry">
            <mxRectangle width="156" height="30" as="alternateBounds" />
          </mxGeometry>
        </mxCell>
        <mxCell id="jRd905gV_513u5tSEe47-156" value="" style="shape=partialRectangle;collapsible=0;dropTarget=0;pointerEvents=0;fillColor=none;points=[[0,0.5],[1,0.5]];portConstraint=eastwest;top=0;left=0;right=0;bottom=0;" vertex="1" parent="jRd905gV_513u5tSEe47-152">
          <mxGeometry y="60" width="186" height="55" as="geometry" />
        </mxCell>
        <mxCell id="jRd905gV_513u5tSEe47-157" value="" style="shape=partialRectangle;overflow=hidden;connectable=0;fillColor=none;top=0;left=0;bottom=0;right=0;" vertex="1" parent="jRd905gV_513u5tSEe47-156">
          <mxGeometry width="30" height="55" as="geometry">
            <mxRectangle width="30" height="55" as="alternateBounds" />
          </mxGeometry>
        </mxCell>
        <mxCell id="jRd905gV_513u5tSEe47-158" value="accident_date&#xa;lost_work_days" style="shape=partialRectangle;overflow=hidden;connectable=0;fillColor=none;top=0;left=0;bottom=0;right=0;align=left;spacingLeft=6;" vertex="1" parent="jRd905gV_513u5tSEe47-156">
          <mxGeometry x="30" width="156" height="55" as="geometry">
            <mxRectangle width="156" height="55" as="alternateBounds" />
          </mxGeometry>
        </mxCell>
        <mxCell id="jRd905gV_513u5tSEe47-159" value="" style="endArrow=none;dashed=1;html=1;dashPattern=1 3;strokeWidth=2;rounded=0;exitX=0.5;exitY=1;exitDx=0;exitDy=0;" edge="1" parent="WIyWlLk6GJQsqaUBKTNV-1" source="jRd905gV_513u5tSEe47-160" target="jRd905gV_513u5tSEe47-52">
          <mxGeometry width="50" height="50" relative="1" as="geometry">
            <mxPoint x="402" y="519.38" as="sourcePoint" />
            <mxPoint x="406" y="562" as="targetPoint" />
          </mxGeometry>
        </mxCell>
        <mxCell id="jRd905gV_513u5tSEe47-160" value="date" style="rounded=0;whiteSpace=wrap;html=1;fillColor=None" vertex="1" parent="WIyWlLk6GJQsqaUBKTNV-1">
          <mxGeometry x="160" y="529" width="50" height="26" as="geometry" />
        </mxCell>
        <mxCell id="jRd905gV_513u5tSEe47-168" value="files" style="rhombus;whiteSpace=wrap;html=1;" vertex="1" parent="WIyWlLk6GJQsqaUBKTNV-1">
          <mxGeometry x="983" y="760" width="130" height="72.5" as="geometry" />
        </mxCell>
        <mxCell id="jRd905gV_513u5tSEe47-169" value="" style="endArrow=none;html=1;rounded=0;entryX=0.461;entryY=1.127;entryDx=0;entryDy=0;entryPerimeter=0;exitX=0.5;exitY=0;exitDx=0;exitDy=0;" edge="1" parent="WIyWlLk6GJQsqaUBKTNV-1" source="jRd905gV_513u5tSEe47-168">
          <mxGeometry relative="1" as="geometry">
            <mxPoint x="956.25" y="855.19" as="sourcePoint" />
            <mxPoint x="1047.79" y="740.75" as="targetPoint" />
          </mxGeometry>
        </mxCell>
        <mxCell id="jRd905gV_513u5tSEe47-170" value="" style="endArrow=none;html=1;rounded=0;" edge="1" parent="WIyWlLk6GJQsqaUBKTNV-1">
          <mxGeometry relative="1" as="geometry">
            <mxPoint x="1047.44" y="857.5" as="sourcePoint" />
            <mxPoint x="1047.44" y="832.5" as="targetPoint" />
          </mxGeometry>
        </mxCell>
        <mxCell id="jRd905gV_513u5tSEe47-172" value="" style="swimlane;startSize=0;" vertex="1" parent="WIyWlLk6GJQsqaUBKTNV-1">
          <mxGeometry x="916" y="590.75" width="264" height="409.25" as="geometry" />
        </mxCell>
        <mxCell id="jRd905gV_513u5tSEe47-173" value="" style="endArrow=none;html=1;rounded=0;exitX=0.139;exitY=1.069;exitDx=0;exitDy=0;exitPerimeter=0;entryX=0.903;entryY=0.409;entryDx=0;entryDy=0;entryPerimeter=0;" edge="1" parent="WIyWlLk6GJQsqaUBKTNV-1" source="jRd905gV_513u5tSEe47-27" target="jRd905gV_513u5tSEe47-52">
          <mxGeometry relative="1" as="geometry">
            <mxPoint x="357.81" y="459.25" as="sourcePoint" />
            <mxPoint x="413.9993649422341" y="579.0093399030648" as="targetPoint" />
          </mxGeometry>
        </mxCell>
        <mxCell id="jRd905gV_513u5tSEe47-174" value="" style="endArrow=none;html=1;rounded=0;entryX=1;entryY=0.5;entryDx=0;entryDy=0;" edge="1" parent="WIyWlLk6GJQsqaUBKTNV-1" source="jRd905gV_513u5tSEe47-141" target="jRd905gV_513u5tSEe47-52">
          <mxGeometry relative="1" as="geometry">
            <mxPoint x="1220" y="880" as="sourcePoint" />
            <mxPoint x="-59" y="613.2499999999998" as="targetPoint" />
            <Array as="points">
              <mxPoint x="1200" y="947" />
              <mxPoint x="1200" y="520" />
              <mxPoint x="840" y="520" />
              <mxPoint x="840" y="600" />
            </Array>
          </mxGeometry>
        </mxCell>
        <mxCell id="jRd905gV_513u5tSEe47-176" value="" style="endArrow=classic;html=1;rounded=0;exitX=0.5;exitY=0;exitDx=0;exitDy=0;" edge="1" parent="WIyWlLk6GJQsqaUBKTNV-1" source="jRd905gV_513u5tSEe47-50">
          <mxGeometry width="50" height="50" relative="1" as="geometry">
            <mxPoint x="656.51" y="491.63" as="sourcePoint" />
            <mxPoint x="547.81" y="487.25" as="targetPoint" />
          </mxGeometry>
        </mxCell>
        <mxCell id="jRd905gV_513u5tSEe47-177" value="" style="endArrow=classic;html=1;rounded=0;exitX=0.5;exitY=0;exitDx=0;exitDy=0;" edge="1" parent="WIyWlLk6GJQsqaUBKTNV-1" source="jRd905gV_513u5tSEe47-48">
          <mxGeometry width="50" height="50" relative="1" as="geometry">
            <mxPoint x="-81.55999999999949" y="518.75" as="sourcePoint" />
            <mxPoint x="-81.30999999999995" y="486" as="targetPoint" />
          </mxGeometry>
        </mxCell>
        <mxCell id="jRd905gV_513u5tSEe47-178" value="" style="endArrow=classic;html=1;rounded=0;" edge="1" parent="WIyWlLk6GJQsqaUBKTNV-1" source="jRd905gV_513u5tSEe47-52">
          <mxGeometry width="50" height="50" relative="1" as="geometry">
            <mxPoint x="244.75000000000045" y="544.75" as="sourcePoint" />
            <mxPoint x="240" y="510" as="targetPoint" />
          </mxGeometry>
        </mxCell>
        <mxCell id="jRd905gV_513u5tSEe47-179" value="" style="endArrow=classic;html=1;rounded=0;exitX=0.5;exitY=1;exitDx=0;exitDy=0;entryX=0.606;entryY=-0.007;entryDx=0;entryDy=0;entryPerimeter=0;" edge="1" parent="WIyWlLk6GJQsqaUBKTNV-1" source="jRd905gV_513u5tSEe47-50" target="jRd905gV_513u5tSEe47-0">
          <mxGeometry width="50" height="50" relative="1" as="geometry">
            <mxPoint x="614.81" y="617.25" as="sourcePoint" />
            <mxPoint x="679.73" y="637.8130000000001" as="targetPoint" />
          </mxGeometry>
        </mxCell>
        <mxCell id="jRd905gV_513u5tSEe47-180" value="" style="endArrow=classic;html=1;rounded=0;entryX=-0.007;entryY=0.127;entryDx=0;entryDy=0;entryPerimeter=0;" edge="1" parent="WIyWlLk6GJQsqaUBKTNV-1" target="jRd905gV_513u5tSEe47-11">
          <mxGeometry width="50" height="50" relative="1" as="geometry">
            <mxPoint x="831" y="691.25" as="sourcePoint" />
            <mxPoint x="881" y="641.25" as="targetPoint" />
          </mxGeometry>
        </mxCell>
        <mxCell id="jRd905gV_513u5tSEe47-190" value="" style="swimlane;startSize=0;" vertex="1" parent="WIyWlLk6GJQsqaUBKTNV-1">
          <mxGeometry x="-160" y="380" width="520" height="260" as="geometry" />
        </mxCell>
        <mxCell id="jRd905gV_513u5tSEe47-191" value="occurs" style="rhombus;whiteSpace=wrap;html=1;" vertex="1" parent="WIyWlLk6GJQsqaUBKTNV-1">
          <mxGeometry x="-340" y="482.5" width="130" height="72.5" as="geometry" />
        </mxCell>
        <mxCell id="jRd905gV_513u5tSEe47-192" value="" style="endArrow=none;html=1;rounded=0;" edge="1" parent="WIyWlLk6GJQsqaUBKTNV-1">
          <mxGeometry relative="1" as="geometry">
            <mxPoint x="-374" y="519.25" as="sourcePoint" />
            <mxPoint x="-340" y="519" as="targetPoint" />
          </mxGeometry>
        </mxCell>
        <mxCell id="jRd905gV_513u5tSEe47-193" value="" style="endArrow=none;html=1;rounded=0;" edge="1" parent="WIyWlLk6GJQsqaUBKTNV-1">
          <mxGeometry relative="1" as="geometry">
            <mxPoint x="-210" y="518.77" as="sourcePoint" />
            <mxPoint x="-160" y="519" as="targetPoint" />
          </mxGeometry>
        </mxCell>
      </root>
    </mxGraphModel>
  </diagram>
</mxfile>
